<svg width="18" height="19" viewBox="0 0 18 19" fill="none" xmlns="http://www.w3.org/2000/svg">
<path fill-rule="evenodd" clip-rule="evenodd" d="M0 9.01245C0 5.41731 0 3.61974 0.856692 2.325C1.23925 1.74684 1.73439 1.2517 2.31255 0.869143C3.60729 0.0124512 5.40486 0.0124512 9 0.0124512C12.5951 0.0124512 14.3927 0.0124512 15.6874 0.869143C16.2656 1.2517 16.7608 1.74684 17.1433 2.325C18 3.61974 18 5.41731 18 9.01245C18 12.6076 18 14.4052 17.1433 15.6999C16.7608 16.2781 16.2656 16.7732 15.6874 17.1558C14.3927 18.0125 12.5951 18.0125 9 18.0125C5.40486 18.0125 3.60729 18.0125 2.31255 17.1558C1.73439 16.7732 1.23925 16.2781 0.856692 15.6999C0 14.4052 0 12.6076 0 9.01245ZM13.6593 9.01268C13.6593 11.586 11.5732 13.6721 8.99984 13.6721C6.42652 13.6721 4.34043 11.586 4.34043 9.01268C4.34043 6.43936 6.42652 4.35327 8.99984 4.35327C11.5732 4.35327 13.6593 6.43936 13.6593 9.01268ZM8.99984 12.0957C10.7025 12.0957 12.0828 10.7154 12.0828 9.01268C12.0828 7.30998 10.7025 5.92968 8.99984 5.92968C7.29714 5.92968 5.91684 7.30998 5.91684 9.01268C5.91684 10.7154 7.29714 12.0957 8.99984 12.0957ZM13.8433 5.214C14.4479 5.214 14.9381 4.72383 14.9381 4.11918C14.9381 3.51452 14.4479 3.02435 13.8433 3.02435C13.2386 3.02435 12.7485 3.51452 12.7485 4.11918C12.7485 4.72383 13.2386 5.214 13.8433 5.214Z" fill="#1E1E1E"/>
</svg>
