<svg width="18" height="18" viewBox="0 0 18 18" fill="none" xmlns="http://www.w3.org/2000/svg">
<path d="M3.05176e-05 2.43238C3.05176e-05 1.85517 0.202739 1.37898 0.608139 1.00381C1.01354 0.628624 1.54058 0.44104 2.18922 0.44104C2.82629 0.44104 3.34172 0.625733 3.73555 0.995152C4.14095 1.3761 4.34366 1.87249 4.34366 2.48433C4.34366 3.03844 4.14675 3.50019 3.75293 3.86961C3.34753 4.25056 2.8147 4.44104 2.15447 4.44104H2.1371C1.50002 4.44104 0.984592 4.25056 0.590764 3.86961C0.196936 3.48866 3.05176e-05 3.00958 3.05176e-05 2.43238ZM0.225899 17.5839V6.0168H4.08304V17.5839H0.225899ZM6.22011 17.5839H10.0773V11.125C10.0773 10.721 10.1236 10.4093 10.2162 10.19C10.3784 9.79745 10.6245 9.46556 10.9547 9.19428C11.2848 8.92299 11.6989 8.78736 12.1969 8.78736C13.4942 8.78736 14.1429 9.65892 14.1429 11.4021V17.5839H18V10.9519C18 9.24334 17.5946 7.94753 16.7838 7.06441C15.973 6.1813 14.9016 5.73974 13.5695 5.73974C12.0753 5.73974 10.9112 6.38043 10.0773 7.66182V7.69645H10.0599L10.0773 7.66182V6.0168H6.22011C6.24327 6.3862 6.25486 7.53482 6.25486 9.46268C6.25486 11.3905 6.24327 14.0976 6.22011 17.5839Z" fill="#1E1E1E"/>
</svg>
