<svg width="40" height="40" viewBox="0 0 40 40" fill="none" xmlns="http://www.w3.org/2000/svg">
<path d="M6.66666 30C6.66666 28.2319 7.36904 26.5362 8.61928 25.286C9.86952 24.0357 11.5652 23.3333 13.3333 23.3333H26.6667C28.4348 23.3333 30.1305 24.0357 31.3807 25.286C32.6309 26.5362 33.3333 28.2319 33.3333 30C33.3333 30.8841 32.9821 31.7319 32.357 32.357C31.7319 32.9822 30.884 33.3333 30 33.3333H9.99999C9.11593 33.3333 8.26809 32.9822 7.64297 32.357C7.01785 31.7319 6.66666 30.8841 6.66666 30Z" stroke="black" stroke-width="2" stroke-linejoin="round"/>
<path d="M20 16.6667C22.7614 16.6667 25 14.4281 25 11.6667C25 8.90525 22.7614 6.66667 20 6.66667C17.2386 6.66667 15 8.90525 15 11.6667C15 14.4281 17.2386 16.6667 20 16.6667Z" stroke="black" stroke-width="2"/>
</svg>
