<svg width="18" height="16" viewBox="0 0 18 16" fill="none" xmlns="http://www.w3.org/2000/svg">
<path d="M12.027 0.713813V0.710571H12.871L13.1794 0.772163C13.385 0.812149 13.5717 0.864551 13.7394 0.929385C13.9071 0.994218 14.0694 1.06986 14.2263 1.1563C14.3832 1.24274 14.5255 1.33082 14.6532 1.4205C14.7798 1.50911 14.8934 1.60312 14.994 1.70253C15.0936 1.80302 15.2488 1.82895 15.4598 1.78033C15.6708 1.7317 15.8981 1.66416 16.1415 1.57772C16.385 1.49128 16.6258 1.39403 16.8638 1.28597C17.1019 1.17791 17.2469 1.1093 17.2988 1.08012C17.3497 1.04988 17.3767 1.03367 17.38 1.0315L17.3832 1.02664L17.3994 1.01853L17.4157 1.01043L17.4319 1.00232L17.4481 0.994218L17.4514 0.989356L17.4562 0.986114L17.4611 0.982873L17.4644 0.97801L17.4806 0.973148L17.4968 0.969906L17.4936 0.994218L17.4887 1.01853L17.4806 1.04284L17.4725 1.06716L17.4644 1.08336L17.4562 1.09957L17.4481 1.12389C17.4427 1.14009 17.4373 1.1617 17.4319 1.18872C17.4265 1.21574 17.3751 1.32378 17.2777 1.51289C17.1803 1.70199 17.0586 1.89379 16.9125 2.08829C16.7664 2.28279 16.6355 2.42973 16.5197 2.52915C16.4029 2.62965 16.3255 2.69988 16.2876 2.73986C16.2498 2.78092 16.2038 2.81873 16.1497 2.85332L16.0685 2.90681L16.0523 2.91491L16.036 2.92302L16.0328 2.92788L16.0279 2.93112L16.0231 2.93436L16.0198 2.93923L16.0036 2.94733L15.9873 2.95544L15.9841 2.9603L15.9792 2.96354L15.9744 2.96678L15.9711 2.97164L15.9679 2.97651L15.963 2.97975L15.9581 2.98299L15.9549 2.98785H16.036L16.4905 2.8906C16.7935 2.82577 17.0829 2.74743 17.3589 2.65558L17.7971 2.5097L17.8458 2.4935L17.8701 2.48539L17.8864 2.47729L17.9026 2.46918L17.9188 2.46108L17.935 2.45298L17.9675 2.44811L18 2.44487V2.47729L17.9919 2.48053L17.9837 2.48539L17.9805 2.49025L17.9756 2.4935L17.9708 2.49674L17.9675 2.5016L17.9643 2.50646L17.9594 2.5097L17.9545 2.51295L17.9513 2.51781L17.948 2.52267L17.9432 2.52591L17.935 2.54212L17.9269 2.55833L17.9221 2.56157C17.9199 2.56481 17.8512 2.65665 17.7159 2.83711C17.5807 3.01865 17.5076 3.11049 17.4968 3.11266C17.486 3.1159 17.4708 3.13211 17.4514 3.16128C17.433 3.19153 17.3183 3.31202 17.1073 3.52273C16.8963 3.73344 16.6896 3.92091 16.4873 4.08516C16.2838 4.25049 16.181 4.45363 16.1789 4.6946C16.1756 4.93448 16.1632 5.20571 16.1415 5.50826C16.1199 5.81082 16.0793 6.13768 16.0198 6.48887C15.9603 6.84006 15.8683 7.23716 15.7439 7.68019C15.6195 8.12321 15.468 8.55544 15.2894 8.97686C15.1109 9.39828 14.9242 9.77647 14.7295 10.1114C14.5347 10.4464 14.3561 10.7301 14.1938 10.9624C14.0315 11.1947 13.8665 11.4135 13.6988 11.6188C13.5311 11.8241 13.319 12.0554 13.0626 12.3125C12.805 12.5686 12.6644 12.7091 12.6406 12.734C12.6157 12.7577 12.5096 12.8464 12.3224 12.9998C12.1363 13.1543 11.9361 13.3088 11.7219 13.4633C11.5087 13.6168 11.3129 13.7448 11.1343 13.8475C10.9558 13.9501 10.7405 14.0674 10.4883 14.1992C10.2373 14.3321 9.9657 14.4553 9.67355 14.5688C9.38139 14.6822 9.07301 14.7876 8.74839 14.8848C8.42377 14.9821 8.10998 15.0577 7.807 15.1117C7.50404 15.1658 7.16048 15.2117 6.77634 15.2495L6.20015 15.3062V15.3143H5.14515V15.3062L5.00718 15.2981C4.91522 15.2927 4.83947 15.2873 4.77995 15.2819C4.72045 15.2765 4.49591 15.2468 4.10637 15.1928C3.71683 15.1388 3.41116 15.0847 3.18933 15.0307C2.96752 14.9767 2.63748 14.874 2.19925 14.7227C1.76102 14.5715 1.38608 14.4186 1.07445 14.264C0.763906 14.1106 0.569136 14.0133 0.490141 13.9723C0.412233 13.9323 0.324586 13.8826 0.227201 13.8232L0.0811237 13.734L0.0778937 13.7292L0.0730083 13.7259L0.068139 13.7227L0.0648928 13.7178L0.048662 13.7097L0.0324312 13.7016L0.0292012 13.6967L0.0243157 13.6935L0.0194465 13.6903L0.0162003 13.6854L0.0129704 13.6805L0.0080849 13.6773H-3.05176e-05V13.6449L0.0162003 13.6481L0.0324312 13.653L0.10547 13.6611C0.154162 13.6665 0.28672 13.6746 0.503125 13.6854C0.719547 13.6962 0.949474 13.6962 1.19294 13.6854C1.4364 13.6746 1.68528 13.6503 1.93955 13.6125C2.19384 13.5746 2.49411 13.5098 2.84037 13.418C3.18663 13.3261 3.50476 13.217 3.79476 13.0906C4.08366 12.9631 4.28924 12.868 4.41153 12.8053C4.53271 12.7437 4.71774 12.6291 4.96661 12.4617L5.33992 12.2104L5.34316 12.2056L5.34803 12.2023L5.35292 12.1991L5.35615 12.1942L5.35939 12.1894L5.36426 12.1861L5.36915 12.1829L5.37238 12.178L5.38861 12.1732L5.40484 12.1699L5.40808 12.1537L5.41295 12.1375L5.41784 12.1343L5.42107 12.1294L5.29122 12.1213C5.20466 12.1159 5.1208 12.1105 5.03964 12.1051C4.95849 12.0997 4.83135 12.0754 4.65822 12.0321C4.4851 11.9889 4.29845 11.9241 4.09826 11.8376C3.89808 11.7512 3.70331 11.6485 3.51395 11.5297C3.3246 11.4108 3.18771 11.3119 3.10331 11.2331C3.01999 11.1553 2.91178 11.0451 2.77869 10.9024C2.64668 10.7587 2.53198 10.6112 2.4346 10.4599C2.33721 10.3087 2.24416 10.1341 2.15544 9.9364L2.02071 9.6414L2.01259 9.61709L2.00448 9.59278L1.99961 9.57657L1.99636 9.56036L2.02071 9.5636L2.04506 9.56847L2.22359 9.59278C2.34263 9.60899 2.52929 9.61438 2.78356 9.60899C3.03785 9.60359 3.21368 9.59278 3.31106 9.57657C3.40845 9.56036 3.46796 9.54955 3.4896 9.54415L3.52206 9.53605L3.56264 9.52795L3.60322 9.51984L3.60646 9.51498L3.61133 9.51174L3.61622 9.5085L3.61945 9.50363L3.58698 9.49553L3.55452 9.48742L3.52206 9.47932L3.4896 9.47122L3.45714 9.46311C3.4355 9.45771 3.39764 9.4469 3.34352 9.43069C3.28942 9.41449 3.14335 9.35505 2.90529 9.2524C2.66725 9.14975 2.47788 9.0498 2.33721 8.95255C2.19619 8.85501 2.06173 8.74835 1.93469 8.63324C1.80808 8.51654 1.66905 8.36634 1.51755 8.18265C1.36607 7.99896 1.23082 7.78554 1.11178 7.54242C0.992761 7.29929 0.903492 7.06697 0.843973 6.84545C0.784694 6.62524 0.745584 6.40009 0.727127 6.1728L0.697896 5.83243L0.714126 5.83567L0.730357 5.84053L0.746588 5.84864L0.762819 5.85674L0.77905 5.86485L0.795281 5.87295L1.04686 5.98641C1.21459 6.06205 1.42288 6.12689 1.67175 6.18091C1.92063 6.23493 2.0694 6.26466 2.11809 6.27006L2.19113 6.27816H2.33721L2.33398 6.2733L2.32909 6.27006L2.32423 6.26681L2.32098 6.26195L2.31775 6.25709L2.31286 6.25385L2.30799 6.25061L2.30475 6.24574L2.28852 6.23764L2.27229 6.22953L2.26906 6.22467L2.26417 6.22143L2.2593 6.21819L2.25606 6.21333L2.23983 6.20522L2.22359 6.19712L2.22036 6.19226C2.21712 6.19008 2.17058 6.15551 2.08076 6.08852C1.99203 6.02045 1.89898 5.93239 1.80159 5.82432C1.70421 5.71626 1.60682 5.6028 1.50944 5.48395C1.41187 5.36482 1.32497 5.23736 1.24974 5.10305C1.17401 4.96799 1.09393 4.79616 1.00953 4.58762C0.926215 4.38015 0.862914 4.17107 0.819627 3.96036C0.776355 3.74965 0.752009 3.54165 0.746588 3.33633C0.741183 3.13102 0.746588 2.95544 0.762819 2.80956C0.77905 2.66368 0.811511 2.49889 0.860204 2.3152C0.908896 2.13151 0.979241 1.93701 1.0712 1.7317L1.20917 1.42374L1.21728 1.39943L1.2254 1.37512L1.23028 1.37187L1.23351 1.36701L1.23676 1.36215L1.24163 1.35891L1.24651 1.36215L1.24974 1.36701L1.25299 1.37187L1.25786 1.37512L1.26275 1.37836L1.26597 1.38322L1.26922 1.38808L1.27409 1.39132L1.28221 1.40753L1.29032 1.42374L1.29521 1.42698L1.29844 1.43185L1.51755 1.67497C1.66363 1.83706 1.83676 2.01805 2.03694 2.21795C2.23713 2.41785 2.34804 2.52159 2.36967 2.52915C2.39132 2.53779 2.41836 2.56264 2.45083 2.60371C2.48329 2.6437 2.5915 2.73933 2.77544 2.8906C2.9594 3.04188 3.20016 3.21748 3.49772 3.41738C3.79529 3.61727 4.12531 3.81448 4.4878 4.00898C4.8503 4.20348 5.23984 4.37907 5.65642 4.53576C6.07301 4.69244 6.36517 4.79509 6.53288 4.84372C6.70061 4.89234 6.98735 4.95447 7.39312 5.03011C7.79889 5.10576 8.10458 5.15438 8.31016 5.17599C8.51575 5.19759 8.65643 5.21003 8.73216 5.21327L8.84578 5.21651L8.84255 5.1922L8.83766 5.16788L8.8052 4.96528C8.78356 4.83021 8.77274 4.64111 8.77274 4.39798C8.77274 4.15486 8.79168 3.93065 8.82955 3.72534C8.86743 3.52002 8.92424 3.31202 8.99997 3.10131C9.07572 2.8906 9.14985 2.72148 9.22233 2.59399C9.29592 2.46756 9.39222 2.32331 9.51124 2.16122C9.63028 1.99914 9.78447 1.83166 9.97382 1.65876C10.1632 1.48587 10.3796 1.33189 10.6231 1.19682C10.8665 1.06176 11.0911 0.959095 11.2966 0.888864C11.5022 0.818633 11.6754 0.772698 11.816 0.751092C11.9567 0.729487 12.027 0.717055 12.027 0.713813Z" fill="#1E1E1E"/>
</svg>
