<svg width="20" height="15" viewBox="0 0 20 15" fill="none" xmlns="http://www.w3.org/2000/svg">
<path d="M10.4386 13.9924L6.37644 13.9165C5.06119 13.89 3.74267 13.9428 2.45321 13.6687C0.491647 13.2592 0.352683 11.2513 0.207272 9.56707C0.00690974 7.19923 0.0844759 4.78841 0.462585 2.44034C0.67604 1.12282 1.51607 0.336649 2.81515 0.251099C7.2005 -0.0593761 11.615 -0.0225816 15.9906 0.122266C16.4528 0.135545 16.9181 0.208121 17.3737 0.290731C19.6231 0.693649 19.6779 2.96905 19.8237 4.8845C19.9691 6.81973 19.9077 8.76488 19.6298 10.6869C19.4068 12.2783 18.9802 13.6129 17.1798 13.7417C14.9241 13.9102 12.7201 14.0458 10.458 14.0026C10.4581 13.9924 10.4451 13.9924 10.4386 13.9924ZM8.05046 9.9634C9.75036 8.96599 11.4178 7.9852 13.108 6.99448C11.4049 5.99706 9.74064 5.01628 8.05046 4.02555V9.9634Z" fill="#1E1E1E"/>
</svg>
